<svg xmlns="http://www.w3.org/2000/svg" width="512" height="512" enable-background="new 0 0 512 512" viewBox="0 0 512 512" id="dislike">
  <path d="M302.844,483.912c-0.002,0-0.003,0-0.005,0c-10.262-0.003-24.264-6.755-32.689-38.911
				c-18.392-70.076-65.023-94.84-95.881-111.227c-18.553-9.853-31.958-16.971-31.958-30.409V79.881
				c0-19.058,31.416-28.885,44.819-28.885h193.233l44.487-0.073c22.02,0,41.324,20.29,41.324,43.422
				c0,11.447-4.689,21.821-12.248,29.301c15.837,5.759,27.18,20.968,27.18,38.776c0,11.334-4.579,21.757-12.189,29.297
				c14.557,6.372,24.752,20.921,24.752,37.809c0,17.494-10.905,32.483-26.261,38.498c7.163,7.48,11.455,17.582,11.455,28.458
				c0,22.739-18.495,41.239-41.229,41.239h-113.66l2.641,11.184c0.802,2.775,8.471,30.079,14.915,79.943
				c1.712,12.985-4.389,30.39-14.839,42.306C319.477,479.381,311.007,483.912,302.844,483.912z M187.13,65.398
				c-11.655,0-30.416,8.934-30.416,14.482v223.484c0,4.778,11.808,11.05,24.31,17.688c31.067,16.498,83.064,44.11,103.058,120.294
				c4.689,17.896,11.526,28.159,18.76,28.161h0.002c3.898,0,8.643-2.861,13.018-7.85c7.665-8.74,12.56-22.044,11.386-30.945
				c-6.502-50.311-14.43-77.674-14.51-77.944c-0.035-0.123-0.069-0.25-0.099-0.375l-4.773-20.219
				c-0.506-2.142-0.004-4.397,1.361-6.123c1.366-1.727,3.446-2.732,5.647-2.732h122.76c14.792,0,26.827-12.039,26.827-26.837
				c0-12.121-8.212-22.765-19.97-25.883c-3.496-0.928-5.762-4.305-5.294-7.892c0.467-3.587,3.523-6.271,7.141-6.271h6.109
				c14.788,0,26.819-12.072,26.819-26.911c0-14.801-12.031-26.842-26.819-26.842h-4.492c-3.643,0-6.712-2.72-7.149-6.337
				c-0.438-3.616,1.895-6.99,5.433-7.858c12.05-2.957,20.466-13.678,20.466-26.068c0-14.798-12.032-26.838-26.82-26.838h-14.953
				c-3.978,0-7.201-3.224-7.201-7.201s3.224-7.201,7.201-7.201c14.801,0,26.842-12.039,26.842-26.837
				c0-15.188-12.826-29.02-26.91-29.02l-44.487,0.073H187.13z"></path>
  <path d="M129.785,358.572H46.124c-14.809,0-26.856-11.132-26.856-24.815V53.841c0-13.683,12.047-24.814,26.856-24.814h83.661
				c14.849,0,26.929,11.132,26.929,24.814v279.916C156.714,347.44,144.634,358.572,129.785,358.572z M46.124,43.429
				c-6.75,0-12.453,4.769-12.453,10.412v279.916c0,5.645,5.703,10.413,12.453,10.413h83.661c6.79,0,12.526-4.769,12.526-10.413
				V53.841c0-5.644-5.736-10.412-12.526-10.412H46.124z"></path>
  <path d="M87.952,323.473c-0.001,0-0.002,0-0.004,0c-1.911-0.001-3.744-0.762-5.094-2.114L50.36,288.798
				c-2.805-2.811-2.805-7.362,0-10.174l32.495-32.567c1.35-1.353,3.183-2.113,5.094-2.114c0.001,0,0.002,0,0.004,0
				c1.91,0,3.742,0.758,5.092,2.109l32.567,32.567c1.351,1.351,2.109,3.182,2.109,5.092s-0.759,3.742-2.11,5.093l-32.567,32.561
				C91.693,322.715,89.862,323.473,87.952,323.473z M65.631,283.71l22.327,22.372l22.376-22.372l-22.376-22.376L65.631,283.71z"></path>
</svg>
