<svg xmlns="http://www.w3.org/2000/svg" xml:space="preserve" viewBox="0 0 24 24" id="like">
  <path d="M21.32 18.5h-3c-.274 0-.5-.225-.5-.5s.226-.5.5-.5h3a.5.5 0 0 1 0 1zM22.32 15.5h-4c-.274 0-.5-.225-.5-.5s.226-.5.5-.5h4a.5.5 0 0 1 0 1zM22.32 12.5h-4c-.274 0-.5-.225-.5-.5s.226-.5.5-.5h4a.5.5 0 0 1 0 1z"></path>
  <path d="M18.654 21.5h-8.188c-.557 0-1.045-.188-1.415-.546a1.612 1.612 0 0 0-1.125-.454H7.32c-.274 0-.5-.225-.5-.5s.226-.5.5-.5h.604c.683 0 1.33.261 1.819.734.186.179.42.266.722.266h8.188c1.002 0 1.547-.439 1.826-.811.401-.529.471-1.162.359-1.558a.496.496 0 0 1 .322-.606c.453-.151.675-.512.779-.787.209-.551.131-1.166-.055-1.49a.5.5 0 0 1 .156-.664c.479-.32.604-.906.564-1.311-.039-.396-.223-.705-.479-.813a.5.5 0 0 1 .192-.961c.226 0 .359 0 .359-.752 0-.968-.365-1.248-1.628-1.248h-5.411a.498.498 0 0 1-.481-.634c.911-3.289.21-4.899-.666-5.278a.97.97 0 0 0-1.173.29v2.227c0 .346-.111.666-.203.925-.553 1.581-1.627 2.982-3.283 4.289a1.005 1.005 0 0 0-.162.157c-.525.633-1.396 1.024-2.27 1.024-.274 0-.5-.226-.5-.5s.226-.5.5-.5c.575 0 1.164-.261 1.499-.665.094-.112.199-.215.313-.305 1.502-1.185 2.47-2.438 2.958-3.833.072-.207.146-.42.146-.597V3.721c0-.093.025-.183.073-.261a1.983 1.983 0 0 1 2.497-.793c1.229.533 2.2 2.343 1.395 5.83h4.769c.787 0 2.628 0 2.628 2.248 0 .294 0 .994-.423 1.415.188.281.31.628.347 1.017.072.755-.182 1.476-.676 1.968a3.01 3.01 0 0 1-.053 1.948c-.201.526-.548.94-.997 1.2.056.675-.163 1.42-.603 1.998-.583.779-1.515 1.209-2.618 1.209z"></path>
  <path d="M6.82 21.5h-6a.502.502 0 0 1-.5-.5V11c0-.275.226-.5.5-.5h6a.5.5 0 0 1 .5.5v10a.5.5 0 0 1-.5.5zm-5.5-1h5v-9h-5v9z"></path>
</svg>
